<mxfile host="app.diagrams.net" modified="2024-07-01T12:16:56.611Z" agent="Mozilla/5.0 (Windows NT 10.0; Win64; x64) AppleWebKit/537.36 (KHTML, like Gecko) Chrome/126.0.0.0 Safari/537.36" etag="T4ZRM9N-QeYwAcgBFJe2" version="24.6.2" type="device">
  <diagram name="Page-1" id="Uhqs7MV-P6FZKxpE6baE">
    <mxGraphModel dx="1034" dy="500" grid="1" gridSize="10" guides="1" tooltips="1" connect="1" arrows="1" fold="1" page="1" pageScale="1" pageWidth="827" pageHeight="1169" math="0" shadow="0">
      <root>
        <mxCell id="0" />
        <mxCell id="1" parent="0" />
        <mxCell id="GRIhqJZ5VC9mnRdGsfr8-1" value="Books" style="ellipse;whiteSpace=wrap;html=1;aspect=fixed;" vertex="1" parent="1">
          <mxGeometry x="330" y="150" width="140" height="140" as="geometry" />
        </mxCell>
        <mxCell id="GRIhqJZ5VC9mnRdGsfr8-2" value="Author" style="ellipse;whiteSpace=wrap;html=1;aspect=fixed;" vertex="1" parent="1">
          <mxGeometry x="610" y="150" width="140" height="140" as="geometry" />
        </mxCell>
        <mxCell id="GRIhqJZ5VC9mnRdGsfr8-3" value="Genre" style="ellipse;whiteSpace=wrap;html=1;aspect=fixed;" vertex="1" parent="1">
          <mxGeometry x="330" y="360" width="140" height="140" as="geometry" />
        </mxCell>
        <mxCell id="GRIhqJZ5VC9mnRdGsfr8-4" value="Rating" style="ellipse;whiteSpace=wrap;html=1;aspect=fixed;" vertex="1" parent="1">
          <mxGeometry x="90" y="150" width="140" height="140" as="geometry" />
        </mxCell>
        <mxCell id="GRIhqJZ5VC9mnRdGsfr8-5" value="" style="endArrow=classic;html=1;rounded=0;exitX=0;exitY=0.5;exitDx=0;exitDy=0;entryX=1;entryY=0.5;entryDx=0;entryDy=0;" edge="1" parent="1" source="GRIhqJZ5VC9mnRdGsfr8-2" target="GRIhqJZ5VC9mnRdGsfr8-1">
          <mxGeometry width="50" height="50" relative="1" as="geometry">
            <mxPoint x="390" y="290" as="sourcePoint" />
            <mxPoint x="440" y="240" as="targetPoint" />
          </mxGeometry>
        </mxCell>
        <mxCell id="GRIhqJZ5VC9mnRdGsfr8-6" value="has books" style="text;strokeColor=none;align=center;fillColor=none;html=1;verticalAlign=middle;whiteSpace=wrap;rounded=0;" vertex="1" parent="1">
          <mxGeometry x="517" y="197" width="60" height="30" as="geometry" />
        </mxCell>
        <mxCell id="GRIhqJZ5VC9mnRdGsfr8-8" value="" style="endArrow=classic;html=1;rounded=0;exitX=0;exitY=0.5;exitDx=0;exitDy=0;entryX=1;entryY=0.5;entryDx=0;entryDy=0;" edge="1" parent="1" source="GRIhqJZ5VC9mnRdGsfr8-1" target="GRIhqJZ5VC9mnRdGsfr8-4">
          <mxGeometry width="50" height="50" relative="1" as="geometry">
            <mxPoint x="390" y="290" as="sourcePoint" />
            <mxPoint x="440" y="240" as="targetPoint" />
          </mxGeometry>
        </mxCell>
        <mxCell id="GRIhqJZ5VC9mnRdGsfr8-9" value="has ratings" style="text;strokeColor=none;align=center;fillColor=none;html=1;verticalAlign=middle;whiteSpace=wrap;rounded=0;" vertex="1" parent="1">
          <mxGeometry x="250" y="188" width="60" height="30" as="geometry" />
        </mxCell>
        <mxCell id="GRIhqJZ5VC9mnRdGsfr8-10" value="" style="endArrow=classic;html=1;rounded=0;entryX=0.5;entryY=0;entryDx=0;entryDy=0;" edge="1" parent="1" target="GRIhqJZ5VC9mnRdGsfr8-3">
          <mxGeometry width="50" height="50" relative="1" as="geometry">
            <mxPoint x="400" y="290" as="sourcePoint" />
            <mxPoint x="440" y="240" as="targetPoint" />
          </mxGeometry>
        </mxCell>
        <mxCell id="GRIhqJZ5VC9mnRdGsfr8-11" value="has genres" style="text;strokeColor=none;align=center;fillColor=none;html=1;verticalAlign=middle;whiteSpace=wrap;rounded=0;" vertex="1" parent="1">
          <mxGeometry x="394" y="310" width="76" height="30" as="geometry" />
        </mxCell>
        <mxCell id="GRIhqJZ5VC9mnRdGsfr8-12" value="Name: String&lt;div&gt;AuthorId: int&lt;/div&gt;&lt;div&gt;Genre: Array&amp;lt;Genre&amp;gt;&lt;/div&gt;&lt;div&gt;Rating: Array&amp;lt;Rating&amp;gt;&lt;/div&gt;" style="text;strokeColor=none;align=center;fillColor=none;html=1;verticalAlign=middle;whiteSpace=wrap;rounded=0;" vertex="1" parent="1">
          <mxGeometry x="330" y="80" width="140" height="60" as="geometry" />
        </mxCell>
        <mxCell id="GRIhqJZ5VC9mnRdGsfr8-13" value="BookId: int&lt;div&gt;Rating: double&lt;/div&gt;" style="text;strokeColor=none;align=center;fillColor=none;html=1;verticalAlign=middle;whiteSpace=wrap;rounded=0;" vertex="1" parent="1">
          <mxGeometry x="100" y="300" width="120" height="30" as="geometry" />
        </mxCell>
        <mxCell id="GRIhqJZ5VC9mnRdGsfr8-14" value="Name: String&lt;div&gt;Books: Array&amp;lt;Books&amp;gt;&lt;/div&gt;" style="text;strokeColor=none;align=center;fillColor=none;html=1;verticalAlign=middle;whiteSpace=wrap;rounded=0;" vertex="1" parent="1">
          <mxGeometry x="620" y="300" width="120" height="30" as="geometry" />
        </mxCell>
        <mxCell id="GRIhqJZ5VC9mnRdGsfr8-15" value="Genre: String&lt;div&gt;&lt;span style=&quot;background-color: initial;&quot;&gt;Books: Array&amp;lt;Books&amp;gt;&lt;/span&gt;&lt;/div&gt;" style="text;strokeColor=none;align=center;fillColor=none;html=1;verticalAlign=middle;whiteSpace=wrap;rounded=0;" vertex="1" parent="1">
          <mxGeometry x="337" y="510" width="126" height="30" as="geometry" />
        </mxCell>
      </root>
    </mxGraphModel>
  </diagram>
</mxfile>
